<svg width="120" height="80" viewBox="0 0 120 80" xmlns="http://www.w3.org/2000/svg">
  <!-- Dancing Ponies Logo -->
  
  <!-- Left Pony -->
  <g transform="translate(10, 15)">
    <!-- Body -->
    <ellipse cx="20" cy="30" rx="12" ry="8" fill="#8B5CF6" stroke="#7C3AED" stroke-width="1"/>
    
    <!-- Head -->
    <circle cx="32" cy="22" r="6" fill="#8B5CF6" stroke="#7C3AED" stroke-width="1"/>
    
    <!-- Mane -->
    <path d="M28 18 Q24 12 20 16 Q26 14 30 18" fill="#A855F7" stroke="#7C3AED" stroke-width="0.5"/>
    
    <!-- Eye -->
    <circle cx="34" cy="20" r="1.5" fill="#1F2937"/>
    <circle cx="34.5" cy="19.5" r="0.5" fill="#FFFFFF"/>
    
    <!-- Legs (dancing position) -->
    <line x1="14" y1="38" x2="12" y2="45" stroke="#7C3AED" stroke-width="2" stroke-linecap="round"/>
    <line x1="20" y1="38" x2="18" y2="44" stroke="#7C3AED" stroke-width="2" stroke-linecap="round"/>
    <line x1="26" y1="38" x2="28" y2="45" stroke="#7C3AED" stroke-width="2" stroke-linecap="round"/>
    <line x1="32" y1="38" x2="34" y2="44" stroke="#7C3AED" stroke-width="2" stroke-linecap="round"/>
    
    <!-- Tail -->
    <path d="M8 28 Q2 32 6 38 Q10 34 8 28" fill="#A855F7" stroke="#7C3AED" stroke-width="0.5"/>
    
    <!-- Hooves -->
    <circle cx="12" cy="45" r="1.5" fill="#374151"/>
    <circle cx="18" cy="44" r="1.5" fill="#374151"/>
    <circle cx="28" cy="45" r="1.5" fill="#374151"/>
    <circle cx="34" cy="44" r="1.5" fill="#374151"/>
  </g>
  
  <!-- Right Pony -->
  <g transform="translate(70, 10)">
    <!-- Body -->
    <ellipse cx="20" cy="35" rx="12" ry="8" fill="#EC4899" stroke="#DB2777" stroke-width="1"/>
    
    <!-- Head -->
    <circle cx="8" cy="27" r="6" fill="#EC4899" stroke="#DB2777" stroke-width="1"/>
    
    <!-- Mane -->
    <path d="M12 23 Q16 17 20 21 Q14 19 10 23" fill="#F472B6" stroke="#DB2777" stroke-width="0.5"/>
    
    <!-- Eye -->
    <circle cx="6" cy="25" r="1.5" fill="#1F2937"/>
    <circle cx="5.5" cy="24.5" r="0.5" fill="#FFFFFF"/>
    
    <!-- Legs (dancing position) -->
    <line x1="14" y1="43" x2="16" y2="50" stroke="#DB2777" stroke-width="2" stroke-linecap="round"/>
    <line x1="20" y1="43" x2="22" y2="49" stroke="#DB2777" stroke-width="2" stroke-linecap="round"/>
    <line x1="26" y1="43" x2="24" y2="50" stroke="#DB2777" stroke-width="2" stroke-linecap="round"/>
    <line x1="32" y1="43" x2="30" y2="49" stroke="#DB2777" stroke-width="2" stroke-linecap="round"/>
    
    <!-- Tail -->
    <path d="M32 33 Q38 37 34 43 Q30 39 32 33" fill="#F472B6" stroke="#DB2777" stroke-width="0.5"/>
    
    <!-- Hooves -->
    <circle cx="16" cy="50" r="1.5" fill="#374151"/>
    <circle cx="22" cy="49" r="1.5" fill="#374151"/>
    <circle cx="24" cy="50" r="1.5" fill="#374151"/>
    <circle cx="30" cy="49" r="1.5" fill="#374151"/>
  </g>
  
  <!-- Trust & Privacy symbols -->
  <g transform="translate(45, 60)">
    <!-- Shield (Trust) -->
    <path d="M5 2 L15 2 L15 8 L10 12 L5 8 Z" fill="#10B981" stroke="#059669" stroke-width="1"/>
    <path d="M8 5 L9 6 L12 3" stroke="#FFFFFF" stroke-width="1.5" fill="none" stroke-linecap="round"/>
    
    <!-- Lock (Privacy) -->
    <rect x="18" y="6" width="8" height="6" rx="1" fill="#F59E0B" stroke="#D97706" stroke-width="1"/>
    <path d="M20 6 L20 4 Q22 2 24 4 L24 6" stroke="#D97706" stroke-width="1.5" fill="none"/>
  </g>
  
  <!-- Motion lines to show dancing -->
  <g opacity="0.6">
    <path d="M5 25 Q8 20 11 25" stroke="#8B5CF6" stroke-width="1" fill="none"/>
    <path d="M8 30 Q11 25 14 30" stroke="#8B5CF6" stroke-width="1" fill="none"/>
    <path d="M105 30 Q108 25 111 30" stroke="#EC4899" stroke-width="1" fill="none"/>
    <path d="M108 35 Q111 30 114 35" stroke="#EC4899" stroke-width="1" fill="none"/>
  </g>
</svg>